<mxfile host="Electron" agent="Mozilla/5.0 (Windows NT 10.0; Win64; x64) AppleWebKit/537.36 (KHTML, like Gecko) draw.io/28.2.5 Chrome/138.0.7204.251 Electron/37.6.1 Safari/537.36" version="28.2.5">
  <diagram name="Página-1" id="gy2yo7RkpKanjK4BpiVM">
    <mxGraphModel dx="1493" dy="1544" grid="1" gridSize="10" guides="1" tooltips="1" connect="1" arrows="1" fold="1" page="1" pageScale="1" pageWidth="827" pageHeight="1169" math="0" shadow="0">
      <root>
        <mxCell id="0" />
        <mxCell id="1" parent="0" />
        <mxCell id="s2uIdZ-xBV_o9WMeRKXz-3" style="edgeStyle=orthogonalEdgeStyle;rounded=0;orthogonalLoop=1;jettySize=auto;html=1;entryX=0.5;entryY=0;entryDx=0;entryDy=0;" parent="1" source="s2uIdZ-xBV_o9WMeRKXz-1" target="s2uIdZ-xBV_o9WMeRKXz-2" edge="1">
          <mxGeometry relative="1" as="geometry" />
        </mxCell>
        <mxCell id="s2uIdZ-xBV_o9WMeRKXz-1" value="Início" style="ellipse;whiteSpace=wrap;html=1;" parent="1" vertex="1">
          <mxGeometry x="360" y="40" width="120" height="80" as="geometry" />
        </mxCell>
        <mxCell id="X4XGXa71mB_21eZPyC-M-15" style="edgeStyle=orthogonalEdgeStyle;rounded=0;orthogonalLoop=1;jettySize=auto;html=1;entryX=0.5;entryY=0;entryDx=0;entryDy=0;" edge="1" parent="1" source="s2uIdZ-xBV_o9WMeRKXz-2" target="s3JJfYybYc-GTtd-1wrL-1">
          <mxGeometry relative="1" as="geometry" />
        </mxCell>
        <mxCell id="s2uIdZ-xBV_o9WMeRKXz-2" value="Declarar variável BAUD_RATE, botoes, leds, estados e opcao" style="rounded=0;whiteSpace=wrap;html=1;" parent="1" vertex="1">
          <mxGeometry x="360" y="160" width="120" height="70" as="geometry" />
        </mxCell>
        <mxCell id="X4XGXa71mB_21eZPyC-M-16" style="edgeStyle=orthogonalEdgeStyle;rounded=0;orthogonalLoop=1;jettySize=auto;html=1;entryX=0.5;entryY=0;entryDx=0;entryDy=0;" edge="1" parent="1" source="s2uIdZ-xBV_o9WMeRKXz-4" target="s2uIdZ-xBV_o9WMeRKXz-6">
          <mxGeometry relative="1" as="geometry" />
        </mxCell>
        <mxCell id="s2uIdZ-xBV_o9WMeRKXz-4" value="Inicializar monitor serial com variável BAUD_RATE, saída de leds e entrada de botões" style="rounded=0;whiteSpace=wrap;html=1;" parent="1" vertex="1">
          <mxGeometry x="359.99999999999994" y="1200" width="120" height="80" as="geometry" />
        </mxCell>
        <mxCell id="aJDHhqfRUW_FTxvvCAS1-13" style="edgeStyle=orthogonalEdgeStyle;rounded=0;orthogonalLoop=1;jettySize=auto;html=1;entryX=0.5;entryY=0;entryDx=0;entryDy=0;" parent="1" source="s2uIdZ-xBV_o9WMeRKXz-6" target="aJDHhqfRUW_FTxvvCAS1-12" edge="1">
          <mxGeometry relative="1" as="geometry" />
        </mxCell>
        <mxCell id="s2uIdZ-xBV_o9WMeRKXz-6" value="Repetir sempre" style="rhombus;whiteSpace=wrap;html=1;" parent="1" vertex="1">
          <mxGeometry x="379.99999999999994" y="1320" width="80" height="80" as="geometry" />
        </mxCell>
        <mxCell id="s2uIdZ-xBV_o9WMeRKXz-14" value="0" style="edgeStyle=orthogonalEdgeStyle;rounded=0;orthogonalLoop=1;jettySize=auto;html=1;entryX=0.5;entryY=0;entryDx=0;entryDy=0;" parent="1" source="s2uIdZ-xBV_o9WMeRKXz-8" target="s2uIdZ-xBV_o9WMeRKXz-9" edge="1">
          <mxGeometry relative="1" as="geometry" />
        </mxCell>
        <mxCell id="s2uIdZ-xBV_o9WMeRKXz-15" style="edgeStyle=orthogonalEdgeStyle;rounded=0;orthogonalLoop=1;jettySize=auto;html=1;entryX=0.5;entryY=0;entryDx=0;entryDy=0;" parent="1" source="s2uIdZ-xBV_o9WMeRKXz-8" target="s2uIdZ-xBV_o9WMeRKXz-10" edge="1">
          <mxGeometry relative="1" as="geometry" />
        </mxCell>
        <mxCell id="s2uIdZ-xBV_o9WMeRKXz-16" style="edgeStyle=orthogonalEdgeStyle;rounded=0;orthogonalLoop=1;jettySize=auto;html=1;entryX=0.5;entryY=0;entryDx=0;entryDy=0;" parent="1" source="s2uIdZ-xBV_o9WMeRKXz-8" target="s2uIdZ-xBV_o9WMeRKXz-11" edge="1">
          <mxGeometry relative="1" as="geometry" />
        </mxCell>
        <mxCell id="s2uIdZ-xBV_o9WMeRKXz-17" style="edgeStyle=orthogonalEdgeStyle;rounded=0;orthogonalLoop=1;jettySize=auto;html=1;entryX=0.5;entryY=0;entryDx=0;entryDy=0;" parent="1" source="s2uIdZ-xBV_o9WMeRKXz-8" target="s2uIdZ-xBV_o9WMeRKXz-12" edge="1">
          <mxGeometry relative="1" as="geometry" />
        </mxCell>
        <mxCell id="s2uIdZ-xBV_o9WMeRKXz-18" style="edgeStyle=orthogonalEdgeStyle;rounded=0;orthogonalLoop=1;jettySize=auto;html=1;entryX=0.5;entryY=0;entryDx=0;entryDy=0;" parent="1" source="s2uIdZ-xBV_o9WMeRKXz-8" edge="1">
          <mxGeometry relative="1" as="geometry">
            <mxPoint x="747.9999999999998" y="2308.9999999999995" as="targetPoint" />
          </mxGeometry>
        </mxCell>
        <mxCell id="s2uIdZ-xBV_o9WMeRKXz-8" value="Avaliar opcao" style="rounded=0;whiteSpace=wrap;html=1;" parent="1" vertex="1">
          <mxGeometry x="361.99999999999994" y="2199" width="120" height="60" as="geometry" />
        </mxCell>
        <mxCell id="s2uIdZ-xBV_o9WMeRKXz-29" style="edgeStyle=orthogonalEdgeStyle;rounded=0;orthogonalLoop=1;jettySize=auto;html=1;entryX=0.5;entryY=0;entryDx=0;entryDy=0;" parent="1" source="s2uIdZ-xBV_o9WMeRKXz-9" target="s2uIdZ-xBV_o9WMeRKXz-24" edge="1">
          <mxGeometry relative="1" as="geometry" />
        </mxCell>
        <mxCell id="s2uIdZ-xBV_o9WMeRKXz-9" value="opcao = 0" style="rounded=0;whiteSpace=wrap;html=1;" parent="1" vertex="1">
          <mxGeometry x="38" y="2309" width="120" height="60" as="geometry" />
        </mxCell>
        <mxCell id="s2uIdZ-xBV_o9WMeRKXz-30" style="edgeStyle=orthogonalEdgeStyle;rounded=0;orthogonalLoop=1;jettySize=auto;html=1;entryX=0.5;entryY=0;entryDx=0;entryDy=0;" parent="1" source="s2uIdZ-xBV_o9WMeRKXz-10" target="s2uIdZ-xBV_o9WMeRKXz-25" edge="1">
          <mxGeometry relative="1" as="geometry" />
        </mxCell>
        <mxCell id="s2uIdZ-xBV_o9WMeRKXz-10" value="opcao = 1" style="rounded=0;whiteSpace=wrap;html=1;" parent="1" vertex="1">
          <mxGeometry x="198" y="2309" width="120" height="60" as="geometry" />
        </mxCell>
        <mxCell id="s2uIdZ-xBV_o9WMeRKXz-31" style="edgeStyle=orthogonalEdgeStyle;rounded=0;orthogonalLoop=1;jettySize=auto;html=1;entryX=0.5;entryY=0;entryDx=0;entryDy=0;" parent="1" source="s2uIdZ-xBV_o9WMeRKXz-11" target="s2uIdZ-xBV_o9WMeRKXz-26" edge="1">
          <mxGeometry relative="1" as="geometry" />
        </mxCell>
        <mxCell id="s2uIdZ-xBV_o9WMeRKXz-11" value="opcao = 2" style="rounded=0;whiteSpace=wrap;html=1;" parent="1" vertex="1">
          <mxGeometry x="361.99999999999994" y="2309" width="120" height="60" as="geometry" />
        </mxCell>
        <mxCell id="s2uIdZ-xBV_o9WMeRKXz-32" style="edgeStyle=orthogonalEdgeStyle;rounded=0;orthogonalLoop=1;jettySize=auto;html=1;entryX=0.5;entryY=0;entryDx=0;entryDy=0;" parent="1" source="s2uIdZ-xBV_o9WMeRKXz-12" target="s2uIdZ-xBV_o9WMeRKXz-27" edge="1">
          <mxGeometry relative="1" as="geometry" />
        </mxCell>
        <mxCell id="s2uIdZ-xBV_o9WMeRKXz-12" value="opcao = 3" style="rounded=0;whiteSpace=wrap;html=1;" parent="1" vertex="1">
          <mxGeometry x="527" y="2309" width="120" height="60" as="geometry" />
        </mxCell>
        <mxCell id="X4XGXa71mB_21eZPyC-M-17" style="edgeStyle=orthogonalEdgeStyle;rounded=0;orthogonalLoop=1;jettySize=auto;html=1;entryX=0.5;entryY=0;entryDx=0;entryDy=0;" edge="1" parent="1" source="s2uIdZ-xBV_o9WMeRKXz-13" target="s2uIdZ-xBV_o9WMeRKXz-28">
          <mxGeometry relative="1" as="geometry" />
        </mxCell>
        <mxCell id="s2uIdZ-xBV_o9WMeRKXz-13" value="default" style="rounded=0;whiteSpace=wrap;html=1;" parent="1" vertex="1">
          <mxGeometry x="698" y="2309" width="120" height="60" as="geometry" />
        </mxCell>
        <mxCell id="aJDHhqfRUW_FTxvvCAS1-23" style="edgeStyle=orthogonalEdgeStyle;rounded=0;orthogonalLoop=1;jettySize=auto;html=1;entryX=0;entryY=0.5;entryDx=0;entryDy=0;" parent="1" source="s2uIdZ-xBV_o9WMeRKXz-24" target="aJDHhqfRUW_FTxvvCAS1-20" edge="1">
          <mxGeometry relative="1" as="geometry">
            <Array as="points">
              <mxPoint x="98" y="2540" />
            </Array>
          </mxGeometry>
        </mxCell>
        <mxCell id="s2uIdZ-xBV_o9WMeRKXz-24" value="Chamar função controlaLeds(); com valores LOW, LOW, LOW" style="rounded=0;whiteSpace=wrap;html=1;" parent="1" vertex="1">
          <mxGeometry x="38" y="2409" width="120" height="60" as="geometry" />
        </mxCell>
        <mxCell id="aJDHhqfRUW_FTxvvCAS1-22" style="edgeStyle=orthogonalEdgeStyle;rounded=0;orthogonalLoop=1;jettySize=auto;html=1;entryX=0;entryY=0.5;entryDx=0;entryDy=0;" parent="1" source="s2uIdZ-xBV_o9WMeRKXz-25" target="aJDHhqfRUW_FTxvvCAS1-20" edge="1">
          <mxGeometry relative="1" as="geometry">
            <Array as="points">
              <mxPoint x="258" y="2540" />
            </Array>
          </mxGeometry>
        </mxCell>
        <mxCell id="s2uIdZ-xBV_o9WMeRKXz-25" value="Chamar função controlaLeds(); com valores HIGH, LOW, LOW" style="rounded=0;whiteSpace=wrap;html=1;" parent="1" vertex="1">
          <mxGeometry x="198" y="2409" width="120" height="60" as="geometry" />
        </mxCell>
        <mxCell id="aJDHhqfRUW_FTxvvCAS1-21" style="edgeStyle=orthogonalEdgeStyle;rounded=0;orthogonalLoop=1;jettySize=auto;html=1;entryX=0.5;entryY=0;entryDx=0;entryDy=0;" parent="1" source="s2uIdZ-xBV_o9WMeRKXz-26" target="aJDHhqfRUW_FTxvvCAS1-20" edge="1">
          <mxGeometry relative="1" as="geometry" />
        </mxCell>
        <mxCell id="s2uIdZ-xBV_o9WMeRKXz-26" value="Chamar função controlaLeds(); com valores LOW, LOW, HIGH" style="rounded=0;whiteSpace=wrap;html=1;" parent="1" vertex="1">
          <mxGeometry x="361.99999999999994" y="2409" width="120" height="60" as="geometry" />
        </mxCell>
        <mxCell id="aJDHhqfRUW_FTxvvCAS1-24" style="edgeStyle=orthogonalEdgeStyle;rounded=0;orthogonalLoop=1;jettySize=auto;html=1;entryX=1;entryY=0.5;entryDx=0;entryDy=0;" parent="1" source="s2uIdZ-xBV_o9WMeRKXz-27" target="aJDHhqfRUW_FTxvvCAS1-20" edge="1">
          <mxGeometry relative="1" as="geometry">
            <Array as="points">
              <mxPoint x="587" y="2540" />
            </Array>
          </mxGeometry>
        </mxCell>
        <mxCell id="s2uIdZ-xBV_o9WMeRKXz-27" value="Chamar função controlaLeds(); com valores HIGH, HIGH, HIGH" style="rounded=0;whiteSpace=wrap;html=1;" parent="1" vertex="1">
          <mxGeometry x="527" y="2409" width="120" height="60" as="geometry" />
        </mxCell>
        <mxCell id="X4XGXa71mB_21eZPyC-M-18" style="edgeStyle=orthogonalEdgeStyle;rounded=0;orthogonalLoop=1;jettySize=auto;html=1;" edge="1" parent="1">
          <mxGeometry relative="1" as="geometry">
            <mxPoint x="587" y="2540" as="targetPoint" />
            <mxPoint x="755" y="2510" as="sourcePoint" />
            <Array as="points">
              <mxPoint x="755" y="2540" />
            </Array>
          </mxGeometry>
        </mxCell>
        <mxCell id="s2uIdZ-xBV_o9WMeRKXz-28" value="Chamar função controlaLeds(); com valores LOW, LOW, LOW&lt;div&gt;Escrever no monitor serial &quot;Erro: opção inválida&quot;&lt;/div&gt;" style="rounded=0;whiteSpace=wrap;html=1;" parent="1" vertex="1">
          <mxGeometry x="698" y="2398.5" width="120" height="111.5" as="geometry" />
        </mxCell>
        <mxCell id="aJDHhqfRUW_FTxvvCAS1-19" style="edgeStyle=orthogonalEdgeStyle;rounded=0;orthogonalLoop=1;jettySize=auto;html=1;entryX=1;entryY=0.5;entryDx=0;entryDy=0;" parent="1" source="aJDHhqfRUW_FTxvvCAS1-11" target="aJDHhqfRUW_FTxvvCAS1-12" edge="1">
          <mxGeometry relative="1" as="geometry">
            <Array as="points">
              <mxPoint x="642" y="1580" />
              <mxPoint x="642" y="1470" />
            </Array>
            <mxPoint x="420" y="1740" as="targetPoint" />
          </mxGeometry>
        </mxCell>
        <mxCell id="CsdU_1v0ilmqfFG2DQ1N-5" style="edgeStyle=orthogonalEdgeStyle;rounded=0;orthogonalLoop=1;jettySize=auto;html=1;entryX=0.5;entryY=0;entryDx=0;entryDy=0;" parent="1" source="aJDHhqfRUW_FTxvvCAS1-11" target="CsdU_1v0ilmqfFG2DQ1N-4" edge="1">
          <mxGeometry relative="1" as="geometry" />
        </mxCell>
        <mxCell id="aJDHhqfRUW_FTxvvCAS1-11" value="Se&lt;div&gt;estado_esquerdo, meio e direito forem falsos&lt;/div&gt;" style="rhombus;whiteSpace=wrap;html=1;" parent="1" vertex="1">
          <mxGeometry x="321.99999999999994" y="1540" width="196" height="80" as="geometry" />
        </mxCell>
        <mxCell id="aJDHhqfRUW_FTxvvCAS1-15" style="edgeStyle=orthogonalEdgeStyle;rounded=0;orthogonalLoop=1;jettySize=auto;html=1;entryX=0.5;entryY=0;entryDx=0;entryDy=0;" parent="1" source="aJDHhqfRUW_FTxvvCAS1-12" target="aJDHhqfRUW_FTxvvCAS1-11" edge="1">
          <mxGeometry relative="1" as="geometry" />
        </mxCell>
        <mxCell id="aJDHhqfRUW_FTxvvCAS1-12" value="Ler estado do botão esquerdo, meio e direito" style="rounded=0;whiteSpace=wrap;html=1;" parent="1" vertex="1">
          <mxGeometry x="359.99999999999994" y="1440" width="120" height="60" as="geometry" />
        </mxCell>
        <mxCell id="aJDHhqfRUW_FTxvvCAS1-17" value="Se sim" style="text;html=1;align=center;verticalAlign=middle;whiteSpace=wrap;rounded=0;" parent="1" vertex="1">
          <mxGeometry x="421.99999999999994" y="1620" width="60" height="30" as="geometry" />
        </mxCell>
        <mxCell id="aJDHhqfRUW_FTxvvCAS1-18" value="Se não" style="text;html=1;align=center;verticalAlign=middle;whiteSpace=wrap;rounded=0;" parent="1" vertex="1">
          <mxGeometry x="520" y="1550" width="60" height="30" as="geometry" />
        </mxCell>
        <mxCell id="s3JJfYybYc-GTtd-1wrL-51" style="edgeStyle=orthogonalEdgeStyle;rounded=0;orthogonalLoop=1;jettySize=auto;html=1;entryX=0;entryY=0.5;entryDx=0;entryDy=0;" parent="1" source="aJDHhqfRUW_FTxvvCAS1-20" target="s2uIdZ-xBV_o9WMeRKXz-6" edge="1">
          <mxGeometry relative="1" as="geometry">
            <Array as="points">
              <mxPoint x="422" y="2610" />
              <mxPoint x="12" y="2610" />
              <mxPoint x="12" y="1360" />
            </Array>
          </mxGeometry>
        </mxCell>
        <mxCell id="aJDHhqfRUW_FTxvvCAS1-20" value="definir delay&lt;div&gt;de 100 ms&lt;/div&gt;" style="rounded=0;whiteSpace=wrap;html=1;" parent="1" vertex="1">
          <mxGeometry x="361.99999999999994" y="2510" width="120" height="60" as="geometry" />
        </mxCell>
        <mxCell id="CsdU_1v0ilmqfFG2DQ1N-7" style="edgeStyle=orthogonalEdgeStyle;rounded=0;orthogonalLoop=1;jettySize=auto;html=1;" parent="1" source="CsdU_1v0ilmqfFG2DQ1N-1" edge="1">
          <mxGeometry relative="1" as="geometry">
            <mxPoint x="642" y="1580" as="targetPoint" />
            <Array as="points">
              <mxPoint x="642" y="1800" />
              <mxPoint x="642" y="1580" />
            </Array>
          </mxGeometry>
        </mxCell>
        <mxCell id="CsdU_1v0ilmqfFG2DQ1N-1" value="Se&lt;div&gt;estado_esquerdo for verdadeiro, estado meio&amp;nbsp;&lt;span style=&quot;background-color: transparent; color: light-dark(rgb(0, 0, 0), rgb(255, 255, 255));&quot;&gt;e direito&lt;/span&gt;&lt;/div&gt;&lt;div&gt;&lt;span style=&quot;background-color: transparent; color: light-dark(rgb(0, 0, 0), rgb(255, 255, 255));&quot;&gt;forem falsos&lt;/span&gt;&lt;/div&gt;" style="rhombus;whiteSpace=wrap;html=1;" parent="1" vertex="1">
          <mxGeometry x="322" y="1760" width="196" height="80" as="geometry" />
        </mxCell>
        <mxCell id="CsdU_1v0ilmqfFG2DQ1N-2" value="Se sim" style="text;html=1;align=center;verticalAlign=middle;whiteSpace=wrap;rounded=0;" parent="1" vertex="1">
          <mxGeometry x="422" y="1850" width="60" height="30" as="geometry" />
        </mxCell>
        <mxCell id="CsdU_1v0ilmqfFG2DQ1N-3" value="Se não" style="text;html=1;align=center;verticalAlign=middle;whiteSpace=wrap;rounded=0;" parent="1" vertex="1">
          <mxGeometry x="520" y="1770" width="60" height="30" as="geometry" />
        </mxCell>
        <mxCell id="CsdU_1v0ilmqfFG2DQ1N-6" style="edgeStyle=orthogonalEdgeStyle;rounded=0;orthogonalLoop=1;jettySize=auto;html=1;entryX=0.5;entryY=0;entryDx=0;entryDy=0;" parent="1" source="CsdU_1v0ilmqfFG2DQ1N-4" target="CsdU_1v0ilmqfFG2DQ1N-1" edge="1">
          <mxGeometry relative="1" as="geometry" />
        </mxCell>
        <mxCell id="s3JJfYybYc-GTtd-1wrL-47" value="" style="edgeStyle=orthogonalEdgeStyle;rounded=0;orthogonalLoop=1;jettySize=auto;html=1;" parent="1" source="CsdU_1v0ilmqfFG2DQ1N-4" target="CsdU_1v0ilmqfFG2DQ1N-1" edge="1">
          <mxGeometry relative="1" as="geometry" />
        </mxCell>
        <mxCell id="CsdU_1v0ilmqfFG2DQ1N-4" value="opcao = 0" style="rounded=0;whiteSpace=wrap;html=1;" parent="1" vertex="1">
          <mxGeometry x="360" y="1660" width="120" height="60" as="geometry" />
        </mxCell>
        <mxCell id="CsdU_1v0ilmqfFG2DQ1N-8" style="edgeStyle=orthogonalEdgeStyle;rounded=0;orthogonalLoop=1;jettySize=auto;html=1;entryX=0.5;entryY=0;entryDx=0;entryDy=0;" parent="1" target="CsdU_1v0ilmqfFG2DQ1N-14" edge="1">
          <mxGeometry relative="1" as="geometry">
            <mxPoint x="422" y="1840" as="sourcePoint" />
          </mxGeometry>
        </mxCell>
        <mxCell id="s3JJfYybYc-GTtd-1wrL-48" style="edgeStyle=orthogonalEdgeStyle;rounded=0;orthogonalLoop=1;jettySize=auto;html=1;entryX=0;entryY=0.5;entryDx=0;entryDy=0;" parent="1" source="CsdU_1v0ilmqfFG2DQ1N-10" target="CsdU_1v0ilmqfFG2DQ1N-25" edge="1">
          <mxGeometry relative="1" as="geometry" />
        </mxCell>
        <mxCell id="CsdU_1v0ilmqfFG2DQ1N-10" value="Se&lt;div&gt;estado_esquerdo e meio forem falsos e estado direito for verdadeiro&lt;/div&gt;" style="rhombus;whiteSpace=wrap;html=1;" parent="1" vertex="1">
          <mxGeometry x="324" y="1980" width="196" height="80" as="geometry" />
        </mxCell>
        <mxCell id="CsdU_1v0ilmqfFG2DQ1N-12" value="Se não" style="text;html=1;align=center;verticalAlign=middle;whiteSpace=wrap;rounded=0;" parent="1" vertex="1">
          <mxGeometry x="517" y="1990" width="60" height="30" as="geometry" />
        </mxCell>
        <mxCell id="CsdU_1v0ilmqfFG2DQ1N-13" style="edgeStyle=orthogonalEdgeStyle;rounded=0;orthogonalLoop=1;jettySize=auto;html=1;entryX=0.5;entryY=0;entryDx=0;entryDy=0;" parent="1" source="CsdU_1v0ilmqfFG2DQ1N-14" target="CsdU_1v0ilmqfFG2DQ1N-10" edge="1">
          <mxGeometry relative="1" as="geometry" />
        </mxCell>
        <mxCell id="CsdU_1v0ilmqfFG2DQ1N-14" value="opcao = 1" style="rounded=0;whiteSpace=wrap;html=1;" parent="1" vertex="1">
          <mxGeometry x="362" y="1880" width="120" height="60" as="geometry" />
        </mxCell>
        <mxCell id="CsdU_1v0ilmqfFG2DQ1N-16" value="Se sim" style="text;html=1;align=center;verticalAlign=middle;whiteSpace=wrap;rounded=0;" parent="1" vertex="1">
          <mxGeometry x="422" y="2060" width="60" height="30" as="geometry" />
        </mxCell>
        <mxCell id="CsdU_1v0ilmqfFG2DQ1N-17" style="edgeStyle=orthogonalEdgeStyle;rounded=0;orthogonalLoop=1;jettySize=auto;html=1;entryX=0.5;entryY=0;entryDx=0;entryDy=0;" parent="1" target="CsdU_1v0ilmqfFG2DQ1N-21" edge="1">
          <mxGeometry relative="1" as="geometry">
            <mxPoint x="422" y="2060" as="sourcePoint" />
          </mxGeometry>
        </mxCell>
        <mxCell id="s3JJfYybYc-GTtd-1wrL-49" style="edgeStyle=orthogonalEdgeStyle;rounded=0;orthogonalLoop=1;jettySize=auto;html=1;entryX=0.5;entryY=0;entryDx=0;entryDy=0;" parent="1" source="CsdU_1v0ilmqfFG2DQ1N-21" target="s2uIdZ-xBV_o9WMeRKXz-8" edge="1">
          <mxGeometry relative="1" as="geometry" />
        </mxCell>
        <mxCell id="CsdU_1v0ilmqfFG2DQ1N-21" value="opcao = 2" style="rounded=0;whiteSpace=wrap;html=1;" parent="1" vertex="1">
          <mxGeometry x="362" y="2100" width="120" height="60" as="geometry" />
        </mxCell>
        <mxCell id="s3JJfYybYc-GTtd-1wrL-53" style="edgeStyle=orthogonalEdgeStyle;rounded=0;orthogonalLoop=1;jettySize=auto;html=1;entryX=0.75;entryY=0;entryDx=0;entryDy=0;" parent="1" source="CsdU_1v0ilmqfFG2DQ1N-25" target="s2uIdZ-xBV_o9WMeRKXz-8" edge="1">
          <mxGeometry relative="1" as="geometry">
            <Array as="points">
              <mxPoint x="643" y="2180" />
              <mxPoint x="452" y="2180" />
            </Array>
          </mxGeometry>
        </mxCell>
        <mxCell id="CsdU_1v0ilmqfFG2DQ1N-25" value="opcao = 3" style="rounded=0;whiteSpace=wrap;html=1;" parent="1" vertex="1">
          <mxGeometry x="583" y="1990" width="120" height="60" as="geometry" />
        </mxCell>
        <mxCell id="s3JJfYybYc-GTtd-1wrL-7" style="edgeStyle=orthogonalEdgeStyle;rounded=0;orthogonalLoop=1;jettySize=auto;html=1;entryX=0;entryY=0.5;entryDx=0;entryDy=0;" parent="1" source="s3JJfYybYc-GTtd-1wrL-1" target="s3JJfYybYc-GTtd-1wrL-3" edge="1">
          <mxGeometry relative="1" as="geometry" />
        </mxCell>
        <mxCell id="s3JJfYybYc-GTtd-1wrL-22" style="edgeStyle=orthogonalEdgeStyle;rounded=0;orthogonalLoop=1;jettySize=auto;html=1;entryX=0.5;entryY=0;entryDx=0;entryDy=0;" parent="1" source="s3JJfYybYc-GTtd-1wrL-1" target="s2uIdZ-xBV_o9WMeRKXz-4" edge="1">
          <mxGeometry relative="1" as="geometry">
            <mxPoint x="420" y="710" as="targetPoint" />
          </mxGeometry>
        </mxCell>
        <mxCell id="s3JJfYybYc-GTtd-1wrL-1" value="Definir função controlaLeds()" style="rounded=0;whiteSpace=wrap;html=1;" parent="1" vertex="1">
          <mxGeometry x="360" y="270" width="120" height="60" as="geometry" />
        </mxCell>
        <mxCell id="s3JJfYybYc-GTtd-1wrL-8" style="edgeStyle=orthogonalEdgeStyle;rounded=0;orthogonalLoop=1;jettySize=auto;html=1;entryX=0.5;entryY=0;entryDx=0;entryDy=0;" parent="1" source="s3JJfYybYc-GTtd-1wrL-3" target="s3JJfYybYc-GTtd-1wrL-4" edge="1">
          <mxGeometry relative="1" as="geometry" />
        </mxCell>
        <mxCell id="s3JJfYybYc-GTtd-1wrL-3" value="Atribuir valor led esquerdo à variável esquerdo" style="rounded=0;whiteSpace=wrap;html=1;" parent="1" vertex="1">
          <mxGeometry x="518" y="270" width="120" height="60" as="geometry" />
        </mxCell>
        <mxCell id="s3JJfYybYc-GTtd-1wrL-9" style="edgeStyle=orthogonalEdgeStyle;rounded=0;orthogonalLoop=1;jettySize=auto;html=1;entryX=0.5;entryY=0;entryDx=0;entryDy=0;" parent="1" source="s3JJfYybYc-GTtd-1wrL-4" target="s3JJfYybYc-GTtd-1wrL-5" edge="1">
          <mxGeometry relative="1" as="geometry" />
        </mxCell>
        <mxCell id="s3JJfYybYc-GTtd-1wrL-4" value="Atribuir valor led meio à variável meio" style="rounded=0;whiteSpace=wrap;html=1;" parent="1" vertex="1">
          <mxGeometry x="518" y="370" width="120" height="60" as="geometry" />
        </mxCell>
        <mxCell id="X4XGXa71mB_21eZPyC-M-3" style="edgeStyle=orthogonalEdgeStyle;rounded=0;orthogonalLoop=1;jettySize=auto;html=1;entryX=0.5;entryY=0;entryDx=0;entryDy=0;" edge="1" parent="1" source="s3JJfYybYc-GTtd-1wrL-5" target="X4XGXa71mB_21eZPyC-M-1">
          <mxGeometry relative="1" as="geometry" />
        </mxCell>
        <mxCell id="s3JJfYybYc-GTtd-1wrL-5" value="Atribuir valor led direito à variável direito" style="rounded=0;whiteSpace=wrap;html=1;" parent="1" vertex="1">
          <mxGeometry x="518" y="470" width="120" height="60" as="geometry" />
        </mxCell>
        <mxCell id="X4XGXa71mB_21eZPyC-M-4" style="edgeStyle=orthogonalEdgeStyle;rounded=0;orthogonalLoop=1;jettySize=auto;html=1;entryX=0.5;entryY=0;entryDx=0;entryDy=0;" edge="1" parent="1" source="X4XGXa71mB_21eZPyC-M-1" target="X4XGXa71mB_21eZPyC-M-2">
          <mxGeometry relative="1" as="geometry" />
        </mxCell>
        <mxCell id="X4XGXa71mB_21eZPyC-M-1" value="Imprimir no monitor serial &quot;Estado -&amp;gt; Esquerdo: &quot;" style="rounded=0;whiteSpace=wrap;html=1;" vertex="1" parent="1">
          <mxGeometry x="518" y="570" width="120" height="60" as="geometry" />
        </mxCell>
        <mxCell id="X4XGXa71mB_21eZPyC-M-11" style="edgeStyle=orthogonalEdgeStyle;rounded=0;orthogonalLoop=1;jettySize=auto;html=1;entryX=0.5;entryY=0;entryDx=0;entryDy=0;" edge="1" parent="1" source="X4XGXa71mB_21eZPyC-M-2" target="X4XGXa71mB_21eZPyC-M-6">
          <mxGeometry relative="1" as="geometry" />
        </mxCell>
        <mxCell id="X4XGXa71mB_21eZPyC-M-2" value="Imprimir no monitor serial variável esquerdo" style="rounded=0;whiteSpace=wrap;html=1;" vertex="1" parent="1">
          <mxGeometry x="518" y="670" width="120" height="60" as="geometry" />
        </mxCell>
        <mxCell id="X4XGXa71mB_21eZPyC-M-5" style="edgeStyle=orthogonalEdgeStyle;rounded=0;orthogonalLoop=1;jettySize=auto;html=1;entryX=0.5;entryY=0;entryDx=0;entryDy=0;" edge="1" parent="1" source="X4XGXa71mB_21eZPyC-M-6" target="X4XGXa71mB_21eZPyC-M-7">
          <mxGeometry relative="1" as="geometry" />
        </mxCell>
        <mxCell id="X4XGXa71mB_21eZPyC-M-6" value="Imprimir no monitor serial &quot; | Meio: &quot;" style="rounded=0;whiteSpace=wrap;html=1;" vertex="1" parent="1">
          <mxGeometry x="518" y="770" width="120" height="60" as="geometry" />
        </mxCell>
        <mxCell id="X4XGXa71mB_21eZPyC-M-12" style="edgeStyle=orthogonalEdgeStyle;rounded=0;orthogonalLoop=1;jettySize=auto;html=1;entryX=0.5;entryY=0;entryDx=0;entryDy=0;" edge="1" parent="1" source="X4XGXa71mB_21eZPyC-M-7" target="X4XGXa71mB_21eZPyC-M-9">
          <mxGeometry relative="1" as="geometry" />
        </mxCell>
        <mxCell id="X4XGXa71mB_21eZPyC-M-7" value="Imprimir no monitor serial variável meio" style="rounded=0;whiteSpace=wrap;html=1;" vertex="1" parent="1">
          <mxGeometry x="518" y="870" width="120" height="60" as="geometry" />
        </mxCell>
        <mxCell id="X4XGXa71mB_21eZPyC-M-8" style="edgeStyle=orthogonalEdgeStyle;rounded=0;orthogonalLoop=1;jettySize=auto;html=1;entryX=0.5;entryY=0;entryDx=0;entryDy=0;" edge="1" parent="1" source="X4XGXa71mB_21eZPyC-M-9" target="X4XGXa71mB_21eZPyC-M-10">
          <mxGeometry relative="1" as="geometry" />
        </mxCell>
        <mxCell id="X4XGXa71mB_21eZPyC-M-9" value="Imprimir no monitor serial &quot;&amp;nbsp;| Direito: &quot;" style="rounded=0;whiteSpace=wrap;html=1;" vertex="1" parent="1">
          <mxGeometry x="517" y="970" width="120" height="60" as="geometry" />
        </mxCell>
        <mxCell id="X4XGXa71mB_21eZPyC-M-13" style="edgeStyle=orthogonalEdgeStyle;rounded=0;orthogonalLoop=1;jettySize=auto;html=1;entryX=0.75;entryY=1;entryDx=0;entryDy=0;" edge="1" parent="1" source="X4XGXa71mB_21eZPyC-M-10" target="s3JJfYybYc-GTtd-1wrL-1">
          <mxGeometry relative="1" as="geometry">
            <Array as="points">
              <mxPoint x="577" y="1160" />
              <mxPoint x="450" y="1160" />
            </Array>
          </mxGeometry>
        </mxCell>
        <mxCell id="X4XGXa71mB_21eZPyC-M-10" value="Imprimir no monitor serial variável direito" style="rounded=0;whiteSpace=wrap;html=1;" vertex="1" parent="1">
          <mxGeometry x="517" y="1070" width="120" height="60" as="geometry" />
        </mxCell>
      </root>
    </mxGraphModel>
  </diagram>
</mxfile>
